<?xml version="1.0" encoding="UTF-8" standalone="no"?>
<svg
   xmlns:dc="http://purl.org/dc/elements/1.1/"
   xmlns:cc="http://creativecommons.org/ns#"
   xmlns:rdf="http://www.w3.org/1999/02/22-rdf-syntax-ns#"
   xmlns:svg="http://www.w3.org/2000/svg"
   xmlns="http://www.w3.org/2000/svg"
   xmlns:sodipodi="http://sodipodi.sourceforge.net/DTD/sodipodi-0.dtd"
   xmlns:inkscape="http://www.inkscape.org/namespaces/inkscape"
   width="50px"
   height="30px"
   viewBox="0 0 92.901024 87.556511"
   version="1.1"
   id="svg8"
   inkscape:version="1.0.2-2 (e86c870879, 2021-01-15)"
   sodipodi:docname="jquery.svg">
  <defs
     id="defs2" />
  <sodipodi:namedview
     id="base"
     pagecolor="#ffffff"
     bordercolor="#666666"
     borderopacity="1.0"
     inkscape:pageopacity="0.0"
     inkscape:pageshadow="2"
     inkscape:zoom="1.4"
     inkscape:cx="223.50195"
     inkscape:cy="178.1065"
     inkscape:document-units="px"
     inkscape:current-layer="layer1"
     inkscape:document-rotation="0"
     showgrid="false"
     inkscape:window-width="1416"
     inkscape:window-height="1009"
     inkscape:window-x="320"
     inkscape:window-y="51"
     inkscape:window-maximized="0"
     units="mm"
     fit-margin-top="0"
     fit-margin-left="0"
     fit-margin-right="0"
     fit-margin-bottom="0" />
  <metadata
     id="metadata5">
    <rdf:RDF>
      <cc:Work
         rdf:about="">
        <dc:format>image/svg+xml</dc:format>
        <dc:type
           rdf:resource="http://purl.org/dc/dcmitype/StillImage" />
        <dc:title></dc:title>
      </cc:Work>
    </rdf:RDF>
  </metadata>
  <g
     inkscape:label="Capa 1"
     inkscape:groupmode="layer"
     id="layer1"
     transform="translate(-5.4777701,-31.743062)">
    <path
       id="path847"
       style="fill:#2177B4  ;stroke-width:0.264583"
       d="m 59.742386,31.743062 -0.553453,0.661458 c -0.885822,1.05852 -2.356207,4.219187 -2.830835,6.085417 -0.55622,2.185841 -0.552225,5.7205 0.0083,7.937499 0.890659,3.522726 3.327109,7.837768 6.099368,10.801409 3.39787,3.632462 6.707064,5.352946 12.977504,6.746875 0.291039,0.06473 2.028118,0.131413 3.860228,0.148312 3.873556,0.03569 6.425901,-0.493048 9.055262,-1.875338 1.609442,-0.846111 4.55876,-3.487962 5.166611,-4.628142 l 0.310058,-0.581358 -1.12603,0.497641 c -0.61944,0.273688 -2.198105,0.814388 -3.507796,1.201479 -1.98202,0.585811 -2.913541,0.705686 -5.55625,0.714684 -5.204603,0.01831 -9.32007,-1.367956 -14.1087,-4.753197 -5.02417,-3.551772 -8.236315,-7.997458 -9.610265,-13.299448 -0.525216,-2.02678 -0.732996,-7.164421 -0.358635,-8.863541 z m -20.2892,5.22087 c -0.339543,0.09757 -3.179869,4.400006 -4.060735,6.172749 -4.564481,9.185997 -3.126878,21.496047 3.607014,30.889589 2.993668,4.176059 8.421907,9.083405 12.686049,11.468034 3.798991,2.124519 9.036733,3.814321 13.438974,4.336169 1.01864,0.12088 3.459427,0.171339 5.423958,0.112138 8.79116,-0.26498 16.433401,-3.315853 21.833809,-8.716264 2.228252,-2.22826 3.472625,-3.936952 5.047755,-6.932393 l 0.94878,-1.805059 -1.149284,1.077455 c -4.759682,4.461079 -10.255729,7.324834 -15.833143,8.250142 -1.539449,0.255291 -9.309272,0.256077 -10.823112,0.0011 -9.18092,-1.547001 -20.029758,-8.25739 -25.752434,-15.929262 -2.09586,-2.809729 -4.272515,-7.317311 -5.089096,-10.538891 -1.265669,-4.993204 -1.446663,-10.491841 -0.532784,-16.176792 0.189032,-1.17569 0.314452,-2.168133 0.279054,-2.205033 -0.0056,-0.0058 -0.01384,-0.0068 -0.02479,-0.0036 z m -23.857459,8.008296 -0.603064,0.529166 c -0.997376,0.875472 -3.822057,4.638445 -4.969206,6.619754 C 5.1820554,60.482997 4.1783206,70.80488 7.1543808,81.623222 10.951776,95.427202 21.226847,107.68743 34.43282,114.17215 c 6.096561,2.99369 11.6063,4.49071 18.256251,4.96093 5.888929,0.41641 10.802826,0.0593 15.915307,-1.15703 10.989889,-2.61459 21.636413,-10.78347 26.459884,-20.302128 l 0.66766,-1.317747 -1.960086,1.775088 c -5.537311,5.015117 -12.736642,8.274117 -21.106723,9.554457 -3.020089,0.46199 -11.148039,0.44917 -14.155209,-0.0222 -6.834341,-1.07134 -11.824883,-2.85581 -17.779278,-6.35778 C 27.242522,93.372969 19.045854,83.648872 15.547667,71.430559 13.473328,64.185389 13.423483,55.418314 15.402973,45.898267 Z" />
  </g>
</svg>
